<?xml version="1.0" encoding="utf-8"?>
<!-- Generator: Adobe Illustrator 16.0.4, SVG Export Plug-In . SVG Version: 6.00 Build 0)  -->
<!DOCTYPE svg PUBLIC "-//W3C//DTD SVG 1.1//EN" "http://www.w3.org/Graphics/SVG/1.1/DTD/svg11.dtd">
<svg version="1.1" xmlns="http://www.w3.org/2000/svg" xmlns:xlink="http://www.w3.org/1999/xlink" x="0px" y="0px"
	 width="25.999px" height="26px" viewBox="0 0 25.999 26" enable-background="new 0 0 25.999 26" xml:space="preserve">
<g id="Ebene_4">
</g>
<g id="Grid_12__x2013__1200_px" display="none">
</g>
<g id="Ebene_1">
	<path fill="#333366" d="M14.414,12.996l7.778-7.778c0.391-0.391,0.391-1.023,0-1.414s-1.023-0.391-1.414,0L13,11.582L5.221,3.803
		c-0.391-0.391-1.023-0.391-1.414,0s-0.391,1.023,0,1.414l7.778,7.778l-7.778,7.778c-0.391,0.391-0.391,1.023,0,1.414
		c0.195,0.195,0.451,0.293,0.707,0.293s0.512-0.098,0.707-0.293L13,14.41l7.777,7.777c0.195,0.195,0.451,0.293,0.707,0.293
		s0.512-0.098,0.707-0.293c0.391-0.391,0.391-1.023,0-1.414L14.414,12.996z"/>
</g>
</svg>
