<?xml version="1.0" encoding="utf-8"?>
<!-- Generator: Adobe Illustrator 16.0.4, SVG Export Plug-In . SVG Version: 6.00 Build 0)  -->
<!DOCTYPE svg PUBLIC "-//W3C//DTD SVG 1.1//EN" "http://www.w3.org/Graphics/SVG/1.1/DTD/svg11.dtd">
<svg version="1.1" xmlns="http://www.w3.org/2000/svg" xmlns:xlink="http://www.w3.org/1999/xlink" x="0px" y="0px" width="66px"
	 height="66px" viewBox="0 0 66 66" enable-background="new 0 0 66 66" xml:space="preserve">
<g id="Ebene_4">
</g>
<g id="Grid_12__x2013__1200_px" display="none">
</g>
<g id="Ebene_1">
	<g>
		<circle fill-rule="evenodd" clip-rule="evenodd" fill="#FFFFFF" cx="33" cy="33.003" r="32"/>
		<path fill-rule="evenodd" clip-rule="evenodd" fill="#333366" d="M65,34.509c-0.139,0.016-0.286,0.066-0.465,0.122
			c-2.104,0.688-4.371,0.869-6.569,1.259c-0.017-0.116-0.032-0.206-0.049-0.319c-0.948,0-1.897,0.044-2.847-0.006
			c-0.463-0.041-0.929-0.168-1.386-0.291c-1.942-0.469-2.43-1.334-2.176-3.331c0.468-3.638-0.269-7.078-2.211-10.178
			c-1.026-1.659-1.043-2.122,0.488-3.553c1.05-0.987,2.507-0.934,3.605,0.144c0.674,0.675,1.292,1.403,1.925,2.103
			c2.636,2.891,5.372,5.668,8.887,7.531c0.152,0.072,0.31,0.128,0.47,0.184c-2.271-15.05-15.025-26.684-30.588-27.19
			c0.2,0.375,0.393,0.75,0.595,1.125c0.17,0.312,0.391,0.612,0.516,0.935c1.398,3.69,4.438,5.5,7.818,7.012
			c2.085,0.944,4.062,2.141,6.029,3.334c1.041,0.631,1.639,1.572,0.758,2.822c-1.1,1.553-3.963,2.319-5.77,1.756
			c-1.395-0.431-2.863-0.69-4.31-0.837c-3.881-0.428-7.502,0.503-10.994,2.188c-1.511,0.715-2.214,0.219-2.352-1.438
			c-0.129-1.603-0.281-3.185-0.284-4.791c-0.015-3.963-1.659-7.16-4.461-9.869c-0.037-0.05-0.081-0.068-0.125-0.119
			C9.512,7.728,1,19.353,1,32.994C1,44.106,6.676,53.925,15.293,59.65c0.038-0.206,0.078-0.434,0.082-0.641
			c0.144-4.675-0.521-9.163-2.288-13.531c-0.742-1.834-1.338-3.819-1.572-5.775c-0.462-3.869,0.789-7.506,2.137-11.041
			c0.969-2.553,1.941-2.794,4.307-1.422c0.46,0.259,0.939,0.503,1.412,0.75c3.02,1.565,7.665-0.138,8.854-3.381
			c1.754-4.769,6.688-6.288,10.855-5.538c3.576,0.638,6.386,2.578,8.558,5.541c1.58,2.175,2.21,7.497,0.904,9.828
			c-0.147,0.25-0.344,0.466-0.561,0.682c-1.827,1.653-3.817,2.953-6.418,3.021c-0.815,0.013-1.632,0.253-2.432,0.444
			c-2.682,0.669-3.617,1.797-3.823,4.575c-0.093,1.234-0.408,2.297-1.617,2.95c-0.435,0.241-0.844,0.828-0.934,1.322
			c-0.458,2.615-0.881,5.237-1.182,7.869c-0.356,3.034-0.571,6.1-0.855,9.163c-0.009,0.175-0.009,0.315-0.004,0.453
			c0.764,0.056,1.531,0.097,2.303,0.097C50.191,65.016,64.203,51.487,65,34.509z"/>
	</g>
</g>
</svg>
