<?xml version="1.0" encoding="utf-8"?>
<!-- Generator: Adobe Illustrator 16.0.4, SVG Export Plug-In . SVG Version: 6.00 Build 0)  -->
<!DOCTYPE svg PUBLIC "-//W3C//DTD SVG 1.1//EN" "http://www.w3.org/Graphics/SVG/1.1/DTD/svg11.dtd">
<svg version="1.1" xmlns="http://www.w3.org/2000/svg" xmlns:xlink="http://www.w3.org/1999/xlink" x="0px" y="0px" width="66px"
	 height="66px" viewBox="0 0 66 66" enable-background="new 0 0 66 66" xml:space="preserve">
<g id="Ebene_4">
</g>
<g id="Grid_12__x2013__1200_px" display="none">
</g>
<g id="Ebene_1">
	<g>
		<path fill-rule="evenodd" clip-rule="evenodd" fill="#FFFFFF" d="M65,32.997C65,15.325,50.673,1,33,1S1,15.325,1,32.997
			C1,50.672,15.327,65,33,65S65,50.672,65,32.997z"/>
		<path fill-rule="evenodd" clip-rule="evenodd" fill="#333366" d="M65,32.991c0-13.656-8.546-25.31-20.581-29.925
			c-0.045,0.062-0.091,0.125-0.128,0.219c-1.062,1.794-2.062,3.672-2.89,5.635c-0.944,2.209-1.321,4.525-0.038,6.793
			c0.583,1.435,1.166,2.866,1.756,4.275c0.005,0.241,0.018,0.479,0.031,0.722c0.001,1.159,0.001,2.347,0.001,3.534
			c-0.015,0.238-0.03,0.478-0.046,0.694c-0.554,2.181-1.602,4.069-3.215,5.644h-0.013c-0.553,0.169-1.112,0.319-1.664,0.491
			c-1.11,0.319-2.129,0.453-3.367,0.181c-2.65-0.615-4.046-2.693-5.876-4.309c-0.483-0.406-1.177-0.584-1.773-0.881
			c-0.191,0.575-0.388,1.172-0.578,1.747c-0.203,0.328-0.407,0.684-0.611,1.016c-2.194,2.172-4.799,2.803-7.663,1.75
			c-4.933-1.807-6.033-4.2-4.625-8.653c0.077-0.25,0.329-0.44,0.5-0.65c0.145,0.219,0.316,0.453,0.438,0.7
			c0.491,0.997,0.971,2,1.449,3c1.483,3.35,5.798,3.644,8.296,1.591c2.343-1.935,3.863-4.353,4.441-7.263
			c0.403-2.009,0.329-4.153-1.286-5.837c-0.435-0.625-0.752-1.391-1.328-1.831c-1.038-0.8-0.803-1.435-0.177-2.325
			c1.896-2.744,3.73-5.516,5.577-8.284C14.597,1.728,1,15.769,1,32.991c0,12.047,6.666,22.531,16.512,27.984
			c-0.12-6.009-0.219-11.994-0.369-18.003c-0.021-0.934-0.194-1.872-0.382-2.803c-0.547-2.644-1.215-5.275-1.686-7.928
			c-0.275-1.609,0.154-1.869,1.574-1.16c2.625,1.354,5.312,1.41,8.071,0.491c0.297-0.081,0.788-0.112,0.976,0.066
			c1.615,1.543,3.149,0.625,4.742-0.019c0.413-0.178,1.006-0.119,1.456,0.016c1.422,0.481,2.83,1.003,4.233,1.556
			c0.351,0.138,0.646,0.438,0.972,0.65c-0.09,3.384-2.075,5.328-5.048,6.334c-2.657,0.916-4.282,2.631-5.008,5.291
			c-0.36,1.312-0.814,2.597-0.96,3.95c-0.438,3.969-0.701,7.969-1.118,11.941c-0.118,1.156-0.208,1.975-0.18,2.556
			c1.882,0.5,3.83,0.825,5.833,0.987c0.012-0.231,0.014-0.481,0.014-0.753c0.031-5.75,0.06-11.503,0.105-17.234
			c0.016-2.628,0.677-4.806,3.354-6.082c3.01-1.443,3.952-3.578,3.574-6.997c1.253-0.694,1.071,0.569,1.134,0.997
			c0.243,1.682,0.313,3.378,0.45,5.066c-0.285,0.444-0.5,0.962-0.875,1.322c-1.959,1.81-3.107,4.084-3.482,6.644
			c-0.687,4.65-1.328,9.338-1.598,14.035c-0.081,1.4-0.12,2.397,0.002,3.078C50.833,64.828,65,50.556,65,32.991z M15.306,16.647
			c0.628-2.806,2.15-4.769,4.899-5.444c2.811-0.681,5.207,0.3,6.901,2.747c1.831,4.828,0.404,9.275-3.945,12.275
			c-2.025,1.387-3.761,1.209-5.525-0.594c-0.375-0.375-0.744-0.756-1.11-1.134C15.57,21.975,14.676,19.475,15.306,16.647z"/>
	</g>
</g>
</svg>
