<?xml version="1.0" encoding="utf-8"?>
<!-- Generator: Adobe Illustrator 16.0.4, SVG Export Plug-In . SVG Version: 6.00 Build 0)  -->
<!DOCTYPE svg PUBLIC "-//W3C//DTD SVG 1.1//EN" "http://www.w3.org/Graphics/SVG/1.1/DTD/svg11.dtd">
<svg version="1.1" xmlns="http://www.w3.org/2000/svg" xmlns:xlink="http://www.w3.org/1999/xlink" x="0px" y="0px"
	 width="25.999px" height="26px" viewBox="0 0 25.999 26" enable-background="new 0 0 25.999 26" xml:space="preserve">
<g id="Ebene_4">
</g>
<g id="Grid_12__x2013__1200_px" display="none">
</g>
<g id="Ebene_1">
	<g>
		<defs>
			<rect id="SVGID_3_" x="382.5" y="124.5" width="343" height="202"/>
		</defs>
		<clipPath id="SVGID_2_">
			<use xlink:href="#SVGID_3_"  overflow="visible"/>
		</clipPath>
		<g clip-path="url(#SVGID_2_)">
			
				<image overflow="visible" width="1174" height="909" xlink:href="../02_Layout/Material/Map_Christen"  transform="matrix(0.9974 0 0 0.9974 -32.5332 -164.564)">
			</image>
		</g>
	</g>
	<path fill="#333366" d="M21.488,4.515C19.219,2.249,16.205,1,13,1C9.792,1,6.778,2.249,4.511,4.515
		c-4.682,4.68-4.683,12.291-0.002,16.97C6.778,23.751,9.792,25,13,25H13c3.207,0,6.222-1.249,8.488-3.515
		C26.169,16.808,26.169,9.195,21.488,4.515z M20.227,13.191c-0.025,0.062-0.062,0.117-0.108,0.163l-6.4,6.4
		c-0.098,0.098-0.226,0.146-0.354,0.146s-0.256-0.049-0.354-0.146c-0.195-0.195-0.195-0.512,0-0.707l5.547-5.547H4.234
		c-0.276,0-0.5-0.224-0.5-0.5s0.224-0.5,0.5-0.5h14.324l-5.546-5.547c-0.195-0.195-0.195-0.512,0-0.707s0.512-0.195,0.707,0
		l6.399,6.4c0.046,0.046,0.083,0.102,0.108,0.163C20.277,12.931,20.277,13.069,20.227,13.191z"/>
</g>
</svg>
