<?xml version="1.0" encoding="utf-8"?>
<!-- Generator: Adobe Illustrator 16.0.4, SVG Export Plug-In . SVG Version: 6.00 Build 0)  -->
<!DOCTYPE svg PUBLIC "-//W3C//DTD SVG 1.1//EN" "http://www.w3.org/Graphics/SVG/1.1/DTD/svg11.dtd">
<svg version="1.1" xmlns="http://www.w3.org/2000/svg" xmlns:xlink="http://www.w3.org/1999/xlink" x="0px" y="0px" width="34px"
	 height="34px" viewBox="0 0 34 34" enable-background="new 0 0 34 34" xml:space="preserve">
<g id="Ebene_4">
</g>
<g id="Grid_12__x2013__1200_px" display="none">
</g>
<g id="Ebene_1">
	<g>
		<defs>
			<rect id="SVGID_3_" x="385.5" y="-351.667" width="343" height="202"/>
		</defs>
		<clipPath id="SVGID_2_">
			<use xlink:href="#SVGID_3_"  overflow="visible"/>
		</clipPath>
		<g clip-path="url(#SVGID_2_)">
			
				<image overflow="visible" width="1174" height="909" xlink:href="../02_Layout/Material/Map_Christen"  transform="matrix(0.9974 0 0 0.9974 -29.5327 -640.7305)">
			</image>
		</g>
	</g>
	<path fill="#ECEAEA" d="M28.319,5.686C25.294,2.666,21.274,1,17.001,1C12.725,1,8.705,2.666,5.683,5.686
		c-6.243,6.24-6.244,16.389-0.003,22.627C8.705,31.335,12.725,33,17.001,33h0.001c4.276,0,8.296-1.665,11.318-4.686
		C34.561,22.078,34.561,11.927,28.319,5.686z"/>
	<path fill="#333366" d="M27.224,9.575H6.777c-0.735,0-1.333,0.599-1.333,1.333v12.186c0,0.734,0.598,1.333,1.333,1.333h20.447
		c0.735,0,1.333-0.599,1.333-1.333V10.908C28.557,10.173,27.958,9.575,27.224,9.575z M6.777,11.44l7.603,4.719l-7.603,6.197V11.44z
		 M17,16.216l-8.552-5.309h17.104L17,16.216z M15.578,16.902l1.071,0.665c0.006,0.003,0.013,0.002,0.018,0.005
		c0.099,0.058,0.209,0.09,0.323,0.092c0.003,0.001,0.006,0.004,0.01,0.004h0h0.001c0.004,0,0.007-0.003,0.01-0.004
		c0.114-0.002,0.224-0.034,0.322-0.092c0.006-0.003,0.012-0.002,0.018-0.005l1.07-0.664l7.595,6.19H7.983L15.578,16.902z
		 M19.621,16.159l7.603-4.719l-0.002,10.915L19.621,16.159z"/>
</g>
</svg>
