<?xml version="1.0" encoding="utf-8"?>
<!-- Generator: Adobe Illustrator 16.0.4, SVG Export Plug-In . SVG Version: 6.00 Build 0)  -->
<!DOCTYPE svg PUBLIC "-//W3C//DTD SVG 1.1//EN" "http://www.w3.org/Graphics/SVG/1.1/DTD/svg11.dtd">
<svg version="1.1" xmlns="http://www.w3.org/2000/svg" xmlns:xlink="http://www.w3.org/1999/xlink" x="0px" y="0px"
	 width="25.999px" height="26px" viewBox="0 0 25.999 26" enable-background="new 0 0 25.999 26" xml:space="preserve">
<g id="Ebene_4">
</g>
<g id="Grid_12__x2013__1200_px" display="none">
</g>
<g id="Ebene_1">
	<g>
		<path fill="#333366" d="M13.667,12.478c-0.607-0.646-1.155-1.286-1.633-1.906l-0.002,0.02l-0.048-0.06
			c-0.153,0.79-0.363,1.626-0.624,2.487c-0.258,0.855-0.541,1.657-0.845,2.393l0.04-0.016l-0.021,0.047
			c0.754-0.259,1.575-0.492,2.448-0.697c0.859-0.202,1.689-0.357,2.474-0.461l-0.022-0.018l0.07-0.009
			C14.898,13.729,14.281,13.132,13.667,12.478z"/>
		<path fill="#333366" d="M10.697,4.886c-0.012-0.014-0.023-0.026-0.033-0.037c-0.139,0.402-0.047,1.336,0.63,2.699
			C11.293,6.097,10.989,5.216,10.697,4.886z"/>
		<path fill="#333366" d="M21.488,4.515C19.219,2.249,16.205,1,13,1C9.792,1,6.778,2.249,4.511,4.515
			c-4.682,4.68-4.683,12.291-0.002,16.97C6.778,23.751,9.792,25,13,25H13c3.207,0,6.222-1.249,8.488-3.515
			C26.169,16.808,26.169,9.195,21.488,4.515z M20.809,17c-1.085,0-2.602-0.664-4.167-1.824c-1.045,0.078-2.199,0.265-3.428,0.554
			c-1.234,0.29-2.351,0.637-3.315,1.029c-1.39,2.726-2.825,3.699-3.711,3.699c-0.478,0-0.845-0.285-0.934-0.727
			c-0.19-0.949,0.944-2.475,3.905-3.759c0.453-0.942,0.868-2.035,1.234-3.246c0.364-1.21,0.622-2.349,0.767-3.386
			C9.52,6.815,9.375,5.089,9.792,4.312c0.18-0.336,0.478-0.53,0.82-0.53c0.209,0,0.527,0.076,0.844,0.436
			c0.729,0.828,1.01,2.648,0.752,4.876c0.593,0.866,1.33,1.771,2.195,2.691c0.866,0.922,1.723,1.715,2.549,2.356
			c0.279-0.014,0.547-0.021,0.801-0.021c3.211,0,4.071,1.06,4.259,1.384c0.183,0.315,0.191,0.659,0.028,0.941
			C21.835,16.804,21.398,17,20.809,17z"/>
		<path fill="#333366" d="M6.257,19.437c0.411-0.073,1.177-0.615,2.025-1.9C6.763,18.407,6.333,19.161,6.257,19.437z"/>
		<path fill="#333366" d="M20.808,15.988c0.134,0,0.225-0.015,0.283-0.031c-0.23-0.261-0.982-0.707-2.661-0.806
			C19.715,15.899,20.507,15.988,20.808,15.988z"/>
	</g>
</g>
</svg>
