<?xml version="1.0" encoding="utf-8"?>
<!-- Generator: Adobe Illustrator 16.0.4, SVG Export Plug-In . SVG Version: 6.00 Build 0)  -->
<!DOCTYPE svg PUBLIC "-//W3C//DTD SVG 1.1//EN" "http://www.w3.org/Graphics/SVG/1.1/DTD/svg11.dtd">
<svg version="1.1" xmlns="http://www.w3.org/2000/svg" xmlns:xlink="http://www.w3.org/1999/xlink" x="0px" y="0px"
	 width="25.999px" height="26px" viewBox="0 0 25.999 26" enable-background="new 0 0 25.999 26" xml:space="preserve">
<g id="Ebene_4">
</g>
<g id="Grid_12__x2013__1200_px" display="none">
</g>
<g id="Ebene_1">
	<g>
		<g>
			<path fill="#ECEAEA" d="M21.488,4.515C19.219,2.249,16.205,1,13,1C9.792,1,6.778,2.249,4.511,4.515
				c-4.682,4.68-4.683,12.291-0.002,16.97C6.778,23.751,9.792,25,13,25H13c3.207,0,6.222-1.249,8.488-3.515
				C26.169,16.808,26.169,9.195,21.488,4.515z"/>
		</g>
		<path fill="#333366" d="M22.012,15.505c-0.188-0.324-1.048-1.384-4.259-1.384c-0.254,0-0.521,0.007-0.801,0.021
			c-0.826-0.642-1.683-1.435-2.549-2.356c-0.865-0.921-1.603-1.825-2.195-2.691c0.258-2.228-0.023-4.048-0.752-4.876
			c-0.316-0.359-0.635-0.436-0.844-0.436c-0.343,0-0.641,0.194-0.82,0.53C9.375,5.089,9.52,6.815,11.161,9.341
			c-0.145,1.037-0.402,2.176-0.767,3.386c-0.366,1.211-0.781,2.304-1.234,3.246c-2.961,1.284-4.096,2.81-3.905,3.759
			c0.089,0.441,0.456,0.727,0.934,0.727c0.886,0,2.321-0.974,3.711-3.699c0.965-0.393,2.081-0.739,3.315-1.029
			c1.229-0.289,2.383-0.476,3.428-0.554C18.208,16.336,19.724,17,20.809,17c0.589,0,1.026-0.196,1.231-0.554
			C22.204,16.164,22.195,15.82,22.012,15.505z M6.257,19.437c0.075-0.275,0.506-1.029,2.025-1.9
			C7.434,18.821,6.668,19.363,6.257,19.437z M10.664,4.849c0.01,0.011,0.021,0.023,0.033,0.037c0.292,0.33,0.597,1.211,0.597,2.662
			C10.617,6.185,10.525,5.251,10.664,4.849z M15.458,14.284c-0.784,0.104-1.614,0.259-2.474,0.461
			c-0.873,0.205-1.694,0.438-2.448,0.697l0.021-0.047l-0.04,0.016c0.304-0.735,0.587-1.537,0.845-2.393
			c0.261-0.861,0.471-1.697,0.624-2.487l0.048,0.06l0.002-0.02c0.478,0.62,1.025,1.26,1.633,1.906
			c0.613,0.654,1.23,1.252,1.838,1.78l-0.07,0.009L15.458,14.284z M20.808,15.988c-0.301,0-1.093-0.089-2.378-0.837
			c1.679,0.099,2.431,0.545,2.661,0.806C21.033,15.974,20.942,15.988,20.808,15.988z"/>
	</g>
</g>
</svg>
