<?xml version="1.0" encoding="utf-8"?>
<!-- Generator: Adobe Illustrator 16.0.4, SVG Export Plug-In . SVG Version: 6.00 Build 0)  -->
<!DOCTYPE svg PUBLIC "-//W3C//DTD SVG 1.1//EN" "http://www.w3.org/Graphics/SVG/1.1/DTD/svg11.dtd">
<svg version="1.1" xmlns="http://www.w3.org/2000/svg" xmlns:xlink="http://www.w3.org/1999/xlink" x="0px" y="0px" width="34px"
	 height="34px" viewBox="0 0 34 34" enable-background="new 0 0 34 34" xml:space="preserve">
<g id="Ebene_4">
</g>
<g id="Grid_12__x2013__1200_px" display="none">
</g>
<g id="Ebene_1">
	<g>
		<defs>
			<rect id="SVGID_3_" x="385.5" y="-304.5" width="343" height="202"/>
		</defs>
		<clipPath id="SVGID_2_">
			<use xlink:href="#SVGID_3_"  overflow="visible"/>
		</clipPath>
		<g clip-path="url(#SVGID_2_)">
			
				<image overflow="visible" width="1174" height="909" xlink:href="../02_Layout/Material/Map_Christen"  transform="matrix(0.9974 0 0 0.9974 -29.5327 -593.564)">
			</image>
		</g>
	</g>
	<g>
		<path fill="#333366" d="M21.958,17.037c-0.383,0.375-1.039,1.015-1.112,1.083c-0.058,0.058-0.142,0.116-0.232,0.16
			c-0.146,0.074-0.328,0.115-0.521,0.115c-1.177,0-3.239-1.53-4.693-3.483c-1.084-1.46-1.375-2.586-0.822-3.169l1.248-1.225
			l-4.227-4.311l-0.592,0.581c-0.32,0.314-0.628,0.617-0.654,0.643l-0.05,0.05c-0.97,0.991-3.248,3.318,4.041,10.752
			c3.478,3.546,6.267,5.343,8.292,5.343c0.486,0,0.922-0.101,1.333-0.309c0.441-0.223,0.773-0.535,1.016-0.762l0.093-0.085
			c0.056-0.053,0.893-0.869,1.248-1.218l-4.244-4.286L21.958,17.037z"/>
		<path fill="#333366" d="M28.318,5.686C25.293,2.666,21.273,1,17,1C12.724,1,8.705,2.666,5.682,5.686
			c-6.242,6.24-6.243,16.388-0.002,22.626C8.705,31.335,12.724,33,17,33h0.001c4.276,0,8.295-1.665,11.318-4.686
			C34.56,22.077,34.56,11.927,28.318,5.686z M27.438,21.966c-0.038,0.04-0.768,0.754-1.145,1.121c0.23,0.729,0.604,2.801-1.57,4.975
			c-0.749,0.75-1.719,1.146-2.803,1.146l-0.122-0.001c-1.341-0.037-2.705-0.686-3.646-1.736l-7.493-7.687
			c-0.113-0.083-0.589-0.409-1.193-0.409c-0.445,0-0.863,0.18-1.242,0.537c-0.396,0.37-0.626,0.893-0.636,1.433
			c-0.008,0.54,0.207,1.07,0.589,1.455l2.631,2.631c0.257,0.258,0.258,0.678,0.001,0.937c-0.253,0.251-0.688,0.25-0.938,0
			L7.24,23.734c-0.635-0.635-0.991-1.514-0.977-2.41c0.014-0.897,0.397-1.765,1.053-2.379c0.629-0.592,1.348-0.893,2.138-0.893
			c0.866,0,1.639,0.377,2.074,0.729c0.021,0.017,0.041,0.035,0.059,0.054l7.533,7.729c0.717,0.8,1.73,1.29,2.715,1.316
			c0.04,0.001,0.086,0.013,0.116,0.002c0.491,0,1.208-0.132,1.835-0.759c1.206-1.205,1.391-2.326,1.352-3.019
			c-0.187,0.131-0.375,0.246-0.569,0.345c-2.688,1.354-6.31-0.332-11.17-5.289C7.727,13.377,6.482,9.488,9.359,6.549L9.407,6.5
			c0.021-0.021,0.805-0.791,1.197-1.175l0.216-0.211c0.211-0.207,0.488-0.32,0.782-0.32c0.299,0.002,0.589,0.124,0.795,0.333
			l4.522,4.612c0.206,0.208,0.322,0.497,0.318,0.793c0,0.29-0.122,0.576-0.332,0.783l-1.268,1.242
			c0.026,0.166,0.159,0.665,0.825,1.562c1.312,1.761,2.995,2.865,3.569,2.944c0.213-0.206,0.682-0.666,0.986-0.963l0.29-0.284
			c0.436-0.404,1.166-0.387,1.568,0.019l4.539,4.585C27.837,20.851,27.846,21.529,27.438,21.966z"/>
	</g>
</g>
</svg>
