<?xml version="1.0" encoding="utf-8"?>
<!-- Generator: Adobe Illustrator 16.0.4, SVG Export Plug-In . SVG Version: 6.00 Build 0)  -->
<!DOCTYPE svg PUBLIC "-//W3C//DTD SVG 1.1//EN" "http://www.w3.org/Graphics/SVG/1.1/DTD/svg11.dtd">
<svg version="1.1" xmlns="http://www.w3.org/2000/svg" xmlns:xlink="http://www.w3.org/1999/xlink" x="0px" y="0px" width="34px"
	 height="34px" viewBox="0 0 34 34" enable-background="new 0 0 34 34" xml:space="preserve">
<g id="Ebene_4">
</g>
<g id="Grid_12__x2013__1200_px" display="none">
</g>
<g id="Ebene_1">
	<g>
		<defs>
			<rect id="SVGID_3_" x="385.5" y="-259" width="343" height="202"/>
		</defs>
		<clipPath id="SVGID_2_">
			<use xlink:href="#SVGID_3_"  overflow="visible"/>
		</clipPath>
		<g clip-path="url(#SVGID_2_)">
			
				<image overflow="visible" width="1174" height="909" xlink:href="../02_Layout/Material/Map_Christen"  transform="matrix(0.9974 0 0 0.9974 -29.5327 -548.064)">
			</image>
		</g>
	</g>
	<path fill="#ECEAEA" d="M28.318,5.686C25.293,2.666,21.273,1,17,1C12.724,1,8.705,2.666,5.682,5.686
		c-6.242,6.24-6.243,16.388-0.002,22.626C8.705,31.335,12.724,33,17,33h0.001c4.276,0,8.295-1.665,11.318-4.686
		C34.56,22.077,34.56,11.927,28.318,5.686z"/>
	<path fill="#333366" d="M27.416,20.421l-4.539-4.585c-0.402-0.406-1.132-0.423-1.568-0.019l-0.29,0.284
		c-0.304,0.298-0.773,0.757-0.986,0.963c-0.574-0.08-2.257-1.183-3.569-2.944c-0.666-0.898-0.799-1.397-0.825-1.562l1.268-1.242
		c0.21-0.208,0.332-0.493,0.332-0.783c0.004-0.296-0.112-0.585-0.318-0.793l-4.522-4.612c-0.206-0.21-0.496-0.332-0.795-0.333
		c-0.294,0-0.571,0.113-0.782,0.32l-0.216,0.211C10.212,5.708,9.429,6.479,9.407,6.5l-0.048,0.05
		c-2.877,2.938-1.632,6.828,4.039,12.612c4.861,4.957,8.483,6.643,11.17,5.289c0.195-0.1,0.383-0.214,0.569-0.345
		c0.04,0.693-0.146,1.814-1.352,3.019c-0.627,0.627-1.344,0.759-1.835,0.759c-0.03,0.011-0.077-0.001-0.116-0.002
		c-0.984-0.026-1.998-0.516-2.715-1.316l-7.533-7.729c-0.018-0.019-0.039-0.038-0.059-0.054c-0.435-0.352-1.208-0.729-2.074-0.729
		c-0.79,0-1.509,0.3-2.138,0.893c-0.656,0.615-1.04,1.482-1.053,2.379c-0.014,0.896,0.342,1.775,0.977,2.41l2.631,2.632
		c0.25,0.25,0.686,0.251,0.938,0c0.257-0.259,0.256-0.679-0.001-0.937l-2.631-2.631c-0.383-0.385-0.598-0.915-0.589-1.455
		c0.009-0.54,0.24-1.063,0.636-1.433c0.379-0.357,0.797-0.537,1.242-0.537c0.604,0,1.08,0.326,1.193,0.409l7.493,7.687
		c0.941,1.051,2.305,1.7,3.646,1.736l0.122,0.001c1.084,0,2.054-0.396,2.803-1.146c2.174-2.173,1.8-4.246,1.57-4.975
		c0.377-0.367,1.107-1.081,1.145-1.121C27.846,21.529,27.837,20.851,27.416,20.421z M14.578,11.742
		c-0.554,0.583-0.262,1.709,0.822,3.169c1.455,1.953,3.516,3.483,4.693,3.483c0.193,0,0.375-0.041,0.521-0.115
		c0.09-0.043,0.174-0.102,0.232-0.16c0.073-0.067,0.729-0.708,1.112-1.083l0.123-0.121l4.244,4.286
		c-0.355,0.349-1.192,1.165-1.248,1.218l-0.093,0.085c-0.242,0.227-0.575,0.539-1.016,0.762c-0.411,0.208-0.847,0.309-1.333,0.309
		c-2.025,0-4.814-1.797-8.292-5.343C7.055,10.798,9.333,8.471,10.303,7.48l0.05-0.05c0.026-0.026,0.334-0.329,0.654-0.643
		l0.592-0.581l4.227,4.311L14.578,11.742z"/>
</g>
</svg>
