<?xml version="1.0" encoding="utf-8"?>
<!-- Generator: Adobe Illustrator 16.0.4, SVG Export Plug-In . SVG Version: 6.00 Build 0)  -->
<!DOCTYPE svg PUBLIC "-//W3C//DTD SVG 1.1//EN" "http://www.w3.org/Graphics/SVG/1.1/DTD/svg11.dtd">
<svg version="1.1" xmlns="http://www.w3.org/2000/svg" xmlns:xlink="http://www.w3.org/1999/xlink" x="0px" y="0px" width="66px"
	 height="66px" viewBox="0 0 66 66" enable-background="new 0 0 66 66" xml:space="preserve">
<g id="Ebene_4">
</g>
<g id="Grid_12__x2013__1200_px" display="none">
</g>
<g id="Ebene_1">
	<g>
		<circle fill-rule="evenodd" clip-rule="evenodd" fill="#FFFFFF" cx="33" cy="33" r="32"/>
		<path fill-rule="evenodd" clip-rule="evenodd" fill="#333366" d="M44.505,20.147c1.487-0.175,2.728,0.631,3.556,2.144
			c0.435,0.803,1.552,1.438,2.478,1.666c0.454,0.088,1.426-0.806,1.72-1.472c0.766-1.697,2.079-2.144,3.764-2.4
			c1.731-0.256,3.404-0.872,5.095-1.366c0.168-0.025,0.312-0.087,0.447-0.15c-1.233-2.438-2.77-4.694-4.556-6.738
			c-2.075,0.469-4.156,0.916-6.203,1.488c-2.823,0.797-5.555,2.078-8.429,2.509c-3.895,0.578-7.884,0.578-11.835,0.769
			c-1.053,0.057-1.022,0.472-0.64,1.225c0.876,1.688,2.035,3.009,3.975,3.519c0.538,0.134,1.002,0.568,1.502,0.872
			c-0.4,0.381-0.793,0.759-1.184,1.144c-0.33,0.347-0.602,0.744-0.986,0.99c-1.311,0.866-2.589,1.825-4.016,2.428
			c-1.336,0.562-2.837,0.772-4.289,0.969c-0.692,0.109-1.776,0.069-2.092-0.337c-1.23-1.619-2.281-3.378-3.275-5.166
			c-0.794-1.397-0.188-2.766,0.846-3.66c2.95-2.572,6.438-4.144,10.299-4.831c7.094-1.256,14.213-2.384,20.875-5.328
			c0.464-0.219,1-0.241,1.5-0.359C47.571,3.653,40.591,1.013,33,1.013C15.326,1.013,1,15.325,1,33
			c0,10.297,4.875,19.484,12.445,25.328c0.012-0.044,0.018-0.081,0.028-0.138c0.79-4.9,1.478-9.834,1.021-14.806
			c-0.155-1.688-0.469-3.425-1.099-4.984c-0.701-1.697-0.97-3.278-0.699-5.134c0.675-4.481,4.449-6.791,8.132-4.297
			c2.598,1.737,4.458,1.659,6.941,0.134c1.973-1.234,4.371-0.244,5.327,1.891c1.44,3.203,1.642,6.644,1.326,10.084
			c-0.152,1.594-1.645,2.634-3.415,2.9c-0.48,0.072-1.083,0.372-1.313,0.753c-1.539,2.575-3.278,5.109-4.402,7.872
			c-1.282,3.147-1.919,6.55-2.978,9.81c-0.092,0.281-0.132,0.5-0.148,0.694c3.38,1.231,7.029,1.881,10.833,1.881
			c8.405,0,16.058-3.225,21.766-8.537c-0.062-0.084-0.137-0.194-0.231-0.297c-2.294-2.531-4.233-5.541-6.931-7.506
			c-3.337-2.462-6.928-4.847-11.155-5.625c-1.441-0.266-1.396-0.741-0.946-1.872c1.664-4.259,1.616-8.284-1.702-11.891
			c-1.141-1.215-1.126-2.269-0.022-3.637C36.528,22.222,40.289,20.634,44.505,20.147z"/>
	</g>
</g>
</svg>
