<?xml version="1.0" encoding="utf-8"?>
<!-- Generator: Adobe Illustrator 16.0.4, SVG Export Plug-In . SVG Version: 6.00 Build 0)  -->
<!DOCTYPE svg PUBLIC "-//W3C//DTD SVG 1.1//EN" "http://www.w3.org/Graphics/SVG/1.1/DTD/svg11.dtd">
<svg version="1.1" xmlns="http://www.w3.org/2000/svg" xmlns:xlink="http://www.w3.org/1999/xlink" x="0px" y="0px" width="66px"
	 height="66px" viewBox="0 0 66 66" enable-background="new 0 0 66 66" xml:space="preserve">
<g id="Ebene_4">
</g>
<g id="Grid_12__x2013__1200_px" display="none">
</g>
<g id="Ebene_1">
	<g>
		<circle fill-rule="evenodd" clip-rule="evenodd" fill="#FFFFFF" cx="33" cy="33" r="31.998"/>
		<path fill-rule="evenodd" clip-rule="evenodd" fill="#333366" d="M27.248,64.102c-0.072,0.127-0.134,0.242-0.183,0.354
			c1.767,0.312,3.582,0.509,5.434,0.538c17.671,0.275,32.223-13.838,32.497-31.508c0.151-9.683-4.038-18.452-10.77-24.433
			c-0.33,0.783-0.661,1.54-0.993,2.3c-1.474-0.404-1.672-1.241-0.917-2.511c0.194-0.313,0.398-0.638,0.498-0.961
			c-2.604-2.053-5.54-3.721-8.717-4.896c-0.11,0.011-0.225,0.043-0.331,0.048c-0.248-0.138-0.496-0.298-0.745-0.433
			c-3.002-0.984-6.198-1.541-9.527-1.592c-0.041-0.001-0.092-0.001-0.133-0.002c-0.113,0.229-0.188,0.485-0.222,0.797
			c-0.138,1.32-0.868,1.833-2.162,1.613c-0.15-0.575-0.618-1.341-0.398-1.697c0.165-0.257,0.28-0.483,0.365-0.641
			C14.448,2.104,1.266,15.686,1.004,32.49c-0.151,9.708,4.038,18.478,10.772,24.461c0.217-0.347,0.438-0.665,0.708-0.937
			c0.619-0.649,1.355-1.776,2.251-0.718c0.926,1.083,1.452,2.492,2.154,3.765c-0.152,0.457-0.422,0.872-0.459,1.331
			c0.353,0.205,0.709,0.408,1.067,0.607c0.045-0.078,0.083-0.176,0.113-0.254c0.184-0.544,0.271-1.105,0.403-1.641
			c0.227-0.166,0.462-0.324,0.695-0.477c1.765,0.281,3.531,0.565,5.29,0.845c1.205-0.191,2.411-0.4,3.608-0.591
			c1.627,0.212,1.723,1.246,1.214,2.46C28.403,62.298,27.805,63.207,27.248,64.102z M58.199,33.12
			c0.939-0.573,1.968-1.042,3.002-1.447c0.416-0.147,0.945-0.01,1.425-0.009c-0.067,0.43,0.005,0.957-0.23,1.256
			c-0.835,1.053-1.763,2.042-2.686,3.025c-0.188,0.19-0.502,0.258-1.024,0.534c-0.606-0.606-1.359-1.144-1.802-1.891
			C56.784,34.408,57.639,33.48,58.199,33.12z M45.69,19.624c0.338-0.476,0.754-0.87,1.137-1.304c1.029-1.8,2.075-3.6,3.085-5.406
			c0.76-1.37,1.546-1.529,2.928-0.508c-0.242,2.359-1.386,4.366-2.545,6.345c-0.162,0.294-0.963,0.186-1.474,0.28
			c0.641,1.044,0.455,1.907-0.44,2.825c-1.914,1.939-3.575,4.067-3.668,7.028c-0.045,1.259-1.165,1.75-2.335,1.217
			c-0.371-0.178-0.715-0.389-1.075-0.582c-0.412-0.701-0.833-1.407-1.248-2.123C41.929,24.816,43.801,22.216,45.69,19.624z
			 M36.062,14.967c0.425-0.815,1.184-1.469,1.789-2.179c0.029-0.119,0.116-0.258,0.072-0.352c-1.053-1.954,0.279-3.199,1.276-4.584
			c0.611-0.862,1.016-1.866,1.52-2.823c0.9-1.643,1.445-1.759,3.016-0.619c-0.412,1.512-0.819,3.024-1.218,4.562
			c-0.124,0.448-0.217,0.925-0.286,1.38c-0.298,2.046-0.613,2.303-2.649,2.244c-0.221-0.013-0.443,0.149-0.667,0.221
			c1.017,1.26,0.855,2.47,0.228,3.939c-1.197,2.791-2.188,5.669-3.19,8.539c-0.433,1.241-1.085,1.918-2.462,1.553
			c-0.579-0.422-1.11-0.93-1.733-1.299c-0.636-0.373-0.783-0.625-0.386-1.369C32.985,21.136,34.448,18.011,36.062,14.967z
			 M32.625,32.532c-2.45,2.525-3.079,5.712-3.336,9.037c-0.178,2.307-0.574,4.548-2.226,6.335c-1.98-0.219-2.222-0.647-1.626-2.873
			c0.315-0.842,0.77-1.691,0.934-2.577c0.724-3.992,1.302-7.996,2.084-11.956c0.205-1.053,0.786-2.123,1.474-2.965
			c1.091-1.308,2.344-0.467,3.507,0.111C34.087,29.42,34.026,31.094,32.625,32.532z M27.403,10.548
			c0.265-1.54,0.673-3.046,1.102-4.543c0.338-1.188,1.277-1.565,2.437-1.538c1.36,0.678,1.561,1.718,0.973,3.053
			c-0.323,0.742-0.575,1.554-0.658,2.356c-0.31,3.202-0.458,3.337-3.604,2.685C27.557,11.881,27.29,11.184,27.403,10.548z
			 M23.566,24.677c1.425-2.822,2.086-5.809,2.295-8.981c0.045-0.708,0.9-1.376,1.381-2.066c0.467,0.054,0.988-0.038,1.384,0.15
			c0.96,0.446,1.75,1.024,1.006,2.278c-1.605,2.725-2.215,5.588-1.546,8.755c0.412,1.947-0.336,2.501-2.113,2.043
			c-0.719-0.224-1.437-0.476-2.154-0.725C23.721,25.661,23.388,25.04,23.566,24.677z M18.678,6.54
			c0.084-0.564,0.293-1.174,0.614-1.625c0.323-0.479,0.859-0.79,1.303-1.167c0.17,0.505,0.337,1.015,0.527,1.577
			c-0.248,0.755-0.356,1.52-0.751,2.119c-0.183,0.27-0.938,0.355-1.367,0.235C18.8,7.62,18.625,6.917,18.678,6.54z M17.801,11.104
			c0.246-0.668,0.868-1.489,1.456-1.612c0.974-0.223,1.356,0.59,1.311,1.586c-0.035,0.809,0.072,1.626,0.114,2.433
			c0.112,0.092,0.229,0.204,0.34,0.318c-0.489,0.33-1.05,1.015-1.454,0.94c-0.707-0.143-1.958,0.11-1.904-1.29
			C17.697,12.682,17.532,11.807,17.801,11.104z M17.1,22.17c0.005,0,0.012,0,0.016,0c0.023-1.478-0.075-2.945,0.131-4.38
			c0.07-0.505,0.865-0.917,1.333-1.36c0.274,0.51,0.671,0.982,0.793,1.537c0.504,2.246,0.874,4.508,1.4,6.729
			c0.398,1.704,0.219,2.06-1.456,2.084c-2.637,0.037-2.632,0.031-2.262-2.667C17.144,23.458,17.09,22.811,17.1,22.17z
			 M17.932,28.231c0.568-0.326,1.634-0.303,2.223,0.019c0.403,0.212,0.425,1.244,0.502,1.895c0.03,0.316-0.174,0.688-0.344,0.995
			c-1.615,2.87-1.122,5.805-0.198,8.717c0.121,0.38,0.525,0.684,0.8,1.013c0.206-0.384,0.556-0.757,0.584-1.175
			c0.21-2.76,0.259-5.528,0.552-8.283c0.145-1.373-0.231-3.022,1.367-3.936c0.81,0.038,1.624,0.101,2.436,0.135
			c1.09,1.433,0.738,2.946,0.107,4.356c-1.549,3.438-2.052,6.984-1.39,10.701c0.13,0.724-0.023,1.524-0.041,2.306
			c-0.57,0.573-1.141,1.142-1.713,1.736c-1.203-1.325-2.776-0.703-4.208-0.8c-0.462-1.089-1.104-2.155-1.322-3.293
			c-0.221-1.135,0.075-2.371-0.014-3.554c-0.19-2.513-0.345-5.034-0.772-7.525C16.238,29.995,16.787,28.938,17.932,28.231z
			 M27.605,57.812c-1.2,0.122-2.394,0.244-3.589,0.395c-1.078-0.332-1.365-0.943-0.632-1.879c1.065-0.108,1.669-0.684,1.8-1.747
			c-0.604,0.241-1.213,0.478-1.818,0.722c-0.596-0.638-1.229-1.251-1.77-1.938c-0.611-0.763-1.121-1.596-1.721-2.365
			c-0.104-0.136-0.405-0.131-0.618-0.19c-0.05,0.193-0.087,0.392-0.154,0.604c-0.234,0.65-0.485,1.321-0.723,1.995
			c0.482,0.28,0.949,0.6,1.448,0.857c1.011,0.522,1.938,1.327,1.582,2.456c-0.406,1.315-1.617,1.093-2.677,0.652
			c-1.907-0.67-1.565-2.2-1.344-3.653c-1.478-0.316-2.049-2.232-1.052-3.823c0.646-1.012,1.442-1.943,2.175-2.926
			c1.303,0.151,2.605,0.306,3.914,0.48c0.434,0.335,0.831,0.769,1.318,0.986c0.951,0.456,1.958,0.791,2.941,1.174
			c-0.007,0.603,0.032,1.188-0.036,1.762c-0.083,0.733-0.261,1.437-0.396,2.169c1.124-0.107,2.241-0.212,3.359-0.316
			c-2.034-2.407-2.04-3.867,0.328-6.146c1.544-1.485,2.557-3.213,3.229-5.203c0.957-2.823,1.717-5.758,2.954-8.48
			c0.683-1.496,2.172-2.617,3.301-3.915c0.425,0.041,0.854,0.091,1.283,0.145c1.689,3.354,1.386,3.807-1.046,6.638
			c-1.768,2.051-3.112,4.542-4.319,7.012c-0.911,1.861-1.465,3.934-1.864,5.987c-0.139,0.71,0.647,1.626,1.01,2.422
			c0.054-2.506,0.251-2.644,2.795-2.66c3.081-0.014,5.811-0.772,7.647-3.584c1.746-2.667,1.921-2.661,4.589-1.167
			c-0.001-0.003-0.001-0.006-0.001-0.006c0.003,0,0.006,0,0.008,0c-0.214-0.579-0.307-1.265-0.681-1.708
			c-1.009-1.206-0.422-1.903,0.636-2.496c0.773-0.426,1.696-0.621,2.368-1.161c0.855-0.68,1.527-1.602,2.279-2.408
			c1.06-1.134,1.825-1.181,2.775-0.17c1.111,1.168,1.02,1.713-0.323,2.824c-1.785,1.482-3.989,2.504-5.153,4.711
			c-0.192,0.366-1.242,0.287-1.902,0.408c0,0,0.001,0.028,0.007,0.034c-0.008-0.003-0.01-0.006-0.014-0.028
			c0.376,2.435-0.708,3.746-2.968,4.68c-2.492,0.992-4.832,2.4-7.186,3.732c-2.516,1.411-2.489,1.468-4.905-0.97
			c-0.008,0.337,0.015,0.7-0.035,1.062c-0.302,2.277-1.609,2.935-3.57,1.776C30.361,56.234,29.107,57.146,27.605,57.812z"/>
	</g>
</g>
</svg>
